<svg xmlns="http://www.w3.org/2000/svg" width="53" height="55.094" viewBox="0 0 53 55.094">
  <path id="btn-tags" fill="#515151" fill-rule="evenodd" d="M178.066,739.33l5.593-4.927c1.308-1.308,20.3.245,21.6,1.553l24.182,24.182a3.349,3.349,0,0,1,0,4.738L208.761,785.56a3.349,3.349,0,0,1-4.738,0l-25.069-25.07C177.645,759.182,176.758,740.639,178.066,739.33Zm23.886,5.595,18.42,17.532-13.759,13.315-18.42-17.31Zm-12.538-2.885a3.884,3.884,0,1,1-3.884,3.883A3.883,3.883,0,0,1,189.414,742.04Z" transform="translate(-177.438 -733.906)"/>
</svg>
