<svg xmlns="http://www.w3.org/2000/svg" width="57.532" height="59.562" viewBox="0 0 57.532 59.562">
  <path fill="#929292" fill-rule="evenodd" d="M300.607,481.309l6.069-5.347c1.42-1.42,22.024.266,23.444,1.685l26.241,26.241a3.636,3.636,0,0,1,0,5.141l-22.446,22.446a3.635,3.635,0,0,1-5.141,0l-27.2-27.2C300.15,502.851,299.187,482.728,300.607,481.309Zm25.92,6.07L346.515,506.4l-14.931,14.45L311.6,502.07Zm-13.606-3.13a4.215,4.215,0,1,1-4.215,4.214A4.214,4.214,0,0,1,312.921,484.249Z" transform="translate(-299.906 -475.438)"/>
</svg>
